PathFileType	4	(X/Y/Z)	C:\Users\WrightLab\Desktop\Jo\P1.2Trial19.trc
DataRate	CameraRate	NumFrames	NumMarkers	Units	OrigDataRate	OrigDataStartFrame	OrigNumFrames
100.00	100.00	       38	19	mm	100.00	1	       629
Frame#	Time	Headset_Front			Headset_Back			Headset_Left			Headset_Right			Left_Shoulder			Right_Shoulder			Sternum			C7			Left Elbow			Right Elbow			Left Wrist			Right Wrist			Left ASIS			Right ASIS			S2			Left Knee			Right Knee			Left Ankle			Right Ankle			
		X1	Y1	Z1	X2	Y2	Z2	X3	Y3	Z3	X4	Y4	Z4	X5	Y5	Z5	X6	Y6	Z6	X7	Y7	Z7	X8	Y8	Z8	X9	Y9	Z9	X10	Y10	Z10	X11	Y11	Z11	X12	Y12	Z12	X13	Y13	Z13	X14	Y14	Z14	X15	Y15	Z15	X16	Y16	Z16	X17	Y17	Z17	X18	Y18	Z18	X19	Y19	Z19	

1	0.000																															103.59574	708.87219	-1423.00818	-466.71240	694.69861	-1473.00781	-56.56031	834.47882	-1390.45996													53.67289	54.06996	-1592.68774				
2	0.010																															103.32967	708.48407	-1420.93811	-471.04916	693.83130	-1476.06165	-59.41135	832.47760	-1395.04333													53.56533	55.48305	-1591.54382				
3	0.020																															101.17429	708.26263	-1415.71350	-473.04099	694.95782	-1474.03027	-64.66469	831.27588	-1388.67175													52.63619	55.80616	-1590.07617				
4	0.030																															100.98573	708.24823	-1414.59302	-477.13977	694.53619	-1474.27832	-69.09274	832.78131	-1380.26648													52.78252	56.79622	-1587.69421				
5	0.040																															99.08448	706.83734	-1413.69031	-480.67905	694.84845	-1477.22144	-71.48537	830.35480	-1385.21008													52.74828	57.42884	-1586.27625				
6	0.050																															98.15498	706.87213	-1410.55273	-483.98700	694.49805	-1475.59277	-76.69911	831.14282	-1382.25330													52.14862	58.80004	-1584.88867				
7	0.060																															97.98692	706.05750	-1411.91553	-487.46127	693.96533	-1475.70544	-80.75594	832.28864	-1371.05103													51.36919	60.90272	-1583.55603				
8	0.070																															95.25051	705.92725	-1404.82141	-490.88425	693.78424	-1476.29492	-85.03536	829.72211	-1376.79944							-47.07676	388.61890	-1434.26624				49.37838	63.48494	-1581.84790				
9	0.080																															94.46178	705.91718	-1404.54968	-495.09302	693.78027	-1476.97913	-89.39114	829.61353	-1372.57837							-50.99408	388.45047	-1427.94531				48.07602	65.53002	-1580.93848				
10	0.090																															92.34883	705.33649	-1400.55298	-498.30658	693.13348	-1476.59521	-94.35316	830.34143	-1367.98657							-52.55322	387.15225	-1420.73816				46.75378	66.88193	-1578.03943				
11	0.100																															91.12491	704.66602	-1398.78552	-504.16052	692.33075	-1482.46936	-100.14497	828.37677	-1365.49072							-55.86843	388.85397	-1410.41858				46.32638	68.12015	-1575.56860				
12	0.110																															88.54347	705.19830	-1395.04810	-505.79428	693.00488	-1478.14258	-103.93250	829.98047	-1357.73730				-180.82147	877.21344	-1672.12280	-58.46212	386.81027	-1403.83765				44.82413	70.23690	-1572.44727				
13	0.120																															86.44573	704.70746	-1394.36743	-511.88977	692.31030	-1476.82422	-108.02828	827.16528	-1365.00562				-182.93182	876.32239	-1669.76135	-61.03605	387.09827	-1393.71777				43.39064	72.37989	-1569.20435				
14	0.130																															83.48078	704.16248	-1390.69824	-514.10162	691.65271	-1477.24768	-112.96711	825.78271	-1356.87524				-184.96974	875.60162	-1667.76697	-66.29453	387.69293	-1380.62012				43.06430	74.37666	-1564.92456				
15	0.140																															80.67228	703.79169	-1384.38879	-518.66290	691.87671	-1476.89746	-118.65930	825.64099	-1357.19153				-186.88316	874.73236	-1665.24902	-68.90430	387.02734	-1373.25256				43.23863	78.68774	-1561.06433				
16	0.150																															77.78098	703.67273	-1380.90088	-522.46436	691.23981	-1477.32141	-123.02304	826.10040	-1350.55493				-188.67233	874.21405	-1663.01331	-73.11974	388.48636	-1363.12451				42.08522	83.47316	-1556.08301				
17	0.160																															75.40926	703.28021	-1379.33765	-526.08881	691.07257	-1477.12903	-127.22087	824.47314	-1349.65515				-190.41673	873.75299	-1660.91895	-78.32410	391.12744	-1352.44104				39.70168	87.75414	-1550.32788				
18	0.170																															71.92918	704.79712	-1371.72974	-530.45941	690.84210	-1477.04333	-132.26787	823.60138	-1348.67444				-192.13977	873.42297	-1658.73010	-83.94639	394.24756	-1338.96497				36.88141	93.36668	-1543.99182				
19	0.180																															67.68377	704.28339	-1365.94385	-534.26880	691.06158	-1477.19739	-136.33614	824.10980	-1342.46936				-193.96257	873.29846	-1656.75012	-89.16487	393.20889	-1335.79675				33.70304	99.01239	-1537.88440				
20	0.190																															63.65097	704.28546	-1362.48108	-538.51300	691.03320	-1476.96594	-142.25842	823.37866	-1345.26758				-195.82623	873.29462	-1654.66602	-95.04221	396.54053	-1323.61597				29.11722	102.45235	-1528.66309				
21	0.200																															60.01483	704.32855	-1358.43359	-543.95612	690.61115	-1479.82056	-145.09326	824.17914	-1338.18726				-197.82755	873.45044	-1652.67810	-101.79690	399.58276	-1311.81006				24.22705	107.26372	-1520.77271				
22	0.210																															56.01082	703.96082	-1355.10376	-545.90741	691.45276	-1477.05579	-149.73137	822.97284	-1339.40967				-199.98247	873.60217	-1651.10840	-109.13416	402.65118	-1300.51660				18.57785	112.35912	-1513.05835				
23	0.220																															51.46675	704.13538	-1351.14429	-552.30377	689.68579	-1481.31409	-154.62776	824.55756	-1334.85815				-202.07674	873.52594	-1649.04578	-117.24997	407.47610	-1285.55872				13.32283	116.71560	-1504.33533				
24	0.230																															46.90878	704.46362	-1347.61462	-553.54773	692.03119	-1477.19788	-156.66055	823.91553	-1333.91309				-204.10973	873.91638	-1647.04468	-124.26253	409.05917	-1280.62622				6.67764	121.54062	-1496.56470				
25	0.240																															42.36343	703.96185	-1343.67358	-558.19409	691.57916	-1476.52393	-161.62175	823.33350	-1332.87000				-206.15039	874.02014	-1644.91492	-131.66312	413.66562	-1265.66431				0.31277	125.02566	-1486.77356				
26	0.250																															38.07140	703.29712	-1338.53540	-562.41339	691.03760	-1478.53296	-165.54234	823.37408	-1330.02319				-207.93521	874.38574	-1642.32349	-139.41679	417.94278	-1258.70898				-6.50173	129.17625	-1477.09985				
27	0.260																															33.47582	703.10016	-1335.26660	-564.94958	692.07617	-1476.83704	-167.71667	823.18518	-1327.30920				-209.79312	874.48199	-1639.71472	-146.66258	422.93549	-1246.36743				-13.95829	132.93964	-1467.06262				
28	0.270																															28.02768	702.52325	-1329.87878	-568.91528	692.42590	-1477.05005	-173.01091	822.19690	-1326.35559				-211.45059	875.52820	-1637.77393	-153.65767	426.61661	-1237.75366				-21.57197	133.68932	-1454.64771				
29	0.280																															22.82980	702.41107	-1325.28381	-571.47888	692.69501	-1477.08313	-175.41458	821.40308	-1327.74573				-213.06613	875.58990	-1634.62903	-160.60617	431.71765	-1227.83936				-29.41599	136.45544	-1442.99854				
30	0.290																															18.65608	700.36377	-1323.47986	-575.45502	693.02875	-1477.37451	-178.02657	824.78302	-1318.79797				-214.64717	876.02997	-1631.70459	-169.42001	434.62149	-1222.58362				-38.89194	136.36331	-1428.92517				
31	0.300																															13.26900	702.37732	-1317.81860	-578.21167	693.64294	-1478.01172	-180.38293	824.07727	-1319.90759				-216.06659	876.42328	-1628.86829	-176.67191	439.24301	-1214.62732				-47.57327	137.05638	-1416.25232				
32	0.310																															8.27708	701.42493	-1313.51697	-581.11304	693.21338	-1476.15857	-184.65598	824.06720	-1319.73267				-217.48613	876.98199	-1626.05042	-184.12837	442.68665	-1207.21240				-56.84784	135.49162	-1401.89075				
33	0.320																															3.66225	701.52869	-1309.31482	-584.32031	694.29016	-1477.60767	-186.10338	824.33197	-1319.77026				-218.77359	877.09265	-1622.43774	-192.68671	447.72128	-1197.29456				-66.67156	134.25558	-1387.95349				
34	0.330																															-1.73023	701.35846	-1303.55054	-587.42310	694.24860	-1476.49817	-189.37367	825.65619	-1310.73352				-219.81206	877.20660	-1618.62952	-200.36723	449.20911	-1193.29785				-76.89391	131.71695	-1372.87158				
35	0.340																															-6.67544	701.22528	-1298.16638	-589.96118	694.50323	-1475.87378	-190.62283	823.68414	-1309.80725				-220.95792	877.51483	-1615.14758	-207.11615	451.97815	-1183.86487				-87.72918	128.30554	-1358.83423				
36	0.350																															-11.19097	700.22394	-1293.76819	-593.10840	693.81415	-1473.92273	-194.10207	825.20227	-1299.98901				-221.94983	877.72626	-1611.27002	-216.03258	456.34360	-1176.59631				-98.86288	124.37326	-1341.74512				
37	0.360																															-15.89170	700.21088	-1289.94519	-595.61682	694.12616	-1473.92615	-195.86691	825.10736	-1297.53442				-222.95113	878.08826	-1607.36108	-223.13268	458.12573	-1172.23181				-110.18890	121.14064	-1326.97778				
38	0.370	-382.75714	1341.22034	-1186.67175										-88.11571	1200.28149	-1363.12244																-20.38213	699.89960	-1283.97498	-598.95831	694.04321	-1472.10413	-198.33383	823.86700	-1295.75952				-223.99524	877.97974	-1603.07324	-230.18362	460.86810	-1165.38574				-122.48415	116.38836	-1309.97888				
